<svg version="1" xmlns="http://www.w3.org/2000/svg" width="726.667" height="726.667" viewBox="0 0 545.000000 545.000000"><path d="M91.2 214.5c-3.7 3.1-5.1 6.9-4.7 12.8.4 6.4 2.8 9 13 13.8 5 2.4 19.1 9.2 31.5 15.2 12.4 6 24.9 12 27.9 13.3l5.5 2.5-13.5 6.5c-7.4 3.6-16.5 8.1-20.4 9.9-29.4 13.8-40.5 19.6-42 21.9-1 1.4-1.9 4.7-2 7.3-.6 8.9 5.6 16 12.9 14.9 1.9-.3 16.4-6.9 32.3-14.7 15.8-7.7 34.3-16.8 41-20.1 9-4.4 13.2-7 15.7-10 7.2-8.4 7-23.5-.5-32-2-2.2-54.7-29-81.6-41.4-6.8-3.1-11.3-3.1-15.1.1zM223.1 214.6c-1.8 1.5-3.5 4.2-4.2 6.7-2.1 8 .5 13.8 8.2 17.8l3.6 1.8 1.8-3.8c1.9-4.3 10.5-13.2 14.9-15.5l2.9-1.5-8.5-4c-10.2-4.9-14.4-5.2-18.7-1.5zM355.2 214.5c-3.7 3.1-5.1 6.9-4.7 12.7.5 8.3-2.6 6.3 46.5 30 9.1 4.4 19.8 9.6 23.9 11.5l7.4 3.5-7.9 3.7c-58.3 27.9-66.2 31.9-68 34.6-.9 1.5-1.8 4.8-1.9 7.3-.5 9.2 5.6 15.9 13 14.8 1.9-.3 16-6.7 31.2-14.2 15.3-7.5 33.7-16.5 41-20 14.6-7.2 19.3-11.3 21.1-18.7 2.4-9.5-.8-21.4-6.8-25.7-2.4-1.7-49.1-24.9-76.6-38.1-9.7-4.6-14-5-18.2-1.4zM269.8 222.5c-.2.2-2.3.5-4.8.8-8 1-16 4.6-21 9.6-5.7 5.7-7.8 11.3-7.5 20.3.4 13.3 8.1 20.7 28.4 27.3 14.6 4.7 20.9 8 21.8 11.3 1.4 5.8-3.5 8.4-16 8.4-9.2 0-15.6-1.2-27.1-5.2-3.3-1.1-6-1.9-6.2-1.8-.1.2-.4 1.6-.7 3.3-.3 1.6-1.1 6.1-1.7 9.9-1.5 8-2 7.4 9 11 10.4 3.4 12 3.7 24 3.7 15.4 0 24.4-1.8 32.1-6.7 12.6-7.9 15.2-26 5.6-38.5-2.6-3.5-12.7-8.8-23.9-12.7-13.4-4.7-16.6-6.2-19.2-9.1-2.4-2.6-1.5-6.5 2.1-8.8 4.3-2.9 20.6-2.4 30.6.9 4.2 1.4 7.9 2.3 8.2 1.9.2-.4.6-2.1.9-3.7.3-1.6 1-5.3 1.6-8.3 1.6-8.7 1.6-8.7-4.7-10.4-3.2-.9-7.6-1.9-9.7-2.3-4-.6-21.3-1.3-21.8-.9z"/><path d="M273.5 250c-3.8.5-3.9.6-1.8 1.8 1.2.7 7.3 3.1 13.5 5.3 6.2 2.2 13.3 5.2 15.7 6.6 8.6 5 14.5 12.5 16.4 20.8l1.3 5.9 2.6-3.5c8-10.6 4.9-28.7-6-34.7l-4.3-2.4-2 2.6c-2.6 3.2-6.2 3.4-15.4.5-8.6-2.6-15-3.6-20-2.9zM259.5 289.9l-4 1.8 5.3 1.1c5.9 1.3 12.7 1.4 15.7.3 1.5-.6.6-1.2-4.5-2.9-7.6-2.6-7.5-2.6-12.5-.3zM224.2 307c-3.7 2.3-6.1 7-5.7 11.5.1 1.6.3 3.9.3 5 .2 2.4 3.8 6.7 6.9 8.3 3.5 1.9 6.4 1.4 14.3-2.4l7.4-3.5-7.2-2.5c-4-1.3-8.6-3.4-10.2-4.6-2.7-2-2.9-2.4-2.5-7.9.3-3.3.4-5.9.2-5.9-.1 0-1.7.9-3.5 2z"/></svg>